<svg width="1466" height="500" viewBox="0 0 1466 500" fill="none" xmlns="http://www.w3.org/2000/svg">
<rect width="1466" height="500" fill="white"/>
<path d="M628.49 257.318H602.924L602.787 243.236H624.252C628.035 243.236 631.133 242.758 633.549 241.801C635.964 240.798 637.764 239.363 638.949 237.494C640.18 235.58 640.795 233.256 640.795 230.521C640.795 227.423 640.202 224.916 639.018 223.002C637.878 221.088 636.078 219.698 633.617 218.832C631.202 217.966 628.08 217.533 624.252 217.533H610.033V301H589.525V201.469H624.252C630.04 201.469 635.212 202.016 639.77 203.109C644.372 204.203 648.269 205.867 651.459 208.1C654.649 210.333 657.087 213.158 658.773 216.576C660.46 219.949 661.303 223.959 661.303 228.607C661.303 232.709 660.368 236.492 658.5 239.955C656.677 243.419 653.783 246.244 649.818 248.432C645.899 250.619 640.772 251.827 634.438 252.055L628.49 257.318ZM627.602 301H597.318L605.316 285.004H627.602C631.202 285.004 634.141 284.434 636.42 283.295C638.699 282.11 640.385 280.515 641.479 278.51C642.572 276.505 643.119 274.203 643.119 271.605C643.119 268.689 642.618 266.16 641.615 264.018C640.658 261.876 639.109 260.235 636.967 259.096C634.825 257.911 631.999 257.318 628.49 257.318H608.734L608.871 243.236H633.48L638.197 248.773C644.258 248.682 649.135 249.753 652.826 251.986C656.563 254.174 659.275 257.022 660.961 260.531C662.693 264.04 663.559 267.8 663.559 271.811C663.559 278.191 662.169 283.568 659.389 287.943C656.609 292.273 652.53 295.531 647.152 297.719C641.82 299.906 635.303 301 627.602 301ZM698.49 196V301H678.734V196H698.49ZM711.615 264.77V263.334C711.615 257.911 712.39 252.921 713.939 248.363C715.489 243.76 717.745 239.773 720.707 236.4C723.669 233.028 727.315 230.408 731.645 228.539C735.974 226.625 740.941 225.668 746.547 225.668C752.152 225.668 757.143 226.625 761.518 228.539C765.893 230.408 769.561 233.028 772.523 236.4C775.531 239.773 777.81 243.76 779.359 248.363C780.909 252.921 781.684 257.911 781.684 263.334V264.77C781.684 270.147 780.909 275.137 779.359 279.74C777.81 284.298 775.531 288.285 772.523 291.703C769.561 295.076 765.915 297.696 761.586 299.564C757.257 301.433 752.289 302.367 746.684 302.367C741.078 302.367 736.088 301.433 731.713 299.564C727.383 297.696 723.715 295.076 720.707 291.703C717.745 288.285 715.489 284.298 713.939 279.74C712.39 275.137 711.615 270.147 711.615 264.77ZM731.303 263.334V264.77C731.303 267.868 731.576 270.762 732.123 273.451C732.67 276.14 733.536 278.51 734.721 280.561C735.951 282.566 737.546 284.138 739.506 285.277C741.465 286.417 743.858 286.986 746.684 286.986C749.418 286.986 751.765 286.417 753.725 285.277C755.684 284.138 757.257 282.566 758.441 280.561C759.626 278.51 760.492 276.14 761.039 273.451C761.632 270.762 761.928 267.868 761.928 264.77V263.334C761.928 260.326 761.632 257.501 761.039 254.857C760.492 252.169 759.604 249.799 758.373 247.748C757.188 245.652 755.616 244.011 753.656 242.826C751.697 241.641 749.327 241.049 746.547 241.049C743.767 241.049 741.397 241.641 739.438 242.826C737.523 244.011 735.951 245.652 734.721 247.748C733.536 249.799 732.67 252.169 732.123 254.857C731.576 257.501 731.303 260.326 731.303 263.334ZM790.639 264.77V263.334C790.639 257.911 791.413 252.921 792.963 248.363C794.512 243.76 796.768 239.773 799.73 236.4C802.693 233.028 806.339 230.408 810.668 228.539C814.997 226.625 819.965 225.668 825.57 225.668C831.176 225.668 836.166 226.625 840.541 228.539C844.916 230.408 848.585 233.028 851.547 236.4C854.555 239.773 856.833 243.76 858.383 248.363C859.932 252.921 860.707 257.911 860.707 263.334V264.77C860.707 270.147 859.932 275.137 858.383 279.74C856.833 284.298 854.555 288.285 851.547 291.703C848.585 295.076 844.939 297.696 840.609 299.564C836.28 301.433 831.312 302.367 825.707 302.367C820.102 302.367 815.111 301.433 810.736 299.564C806.407 297.696 802.738 295.076 799.73 291.703C796.768 288.285 794.512 284.298 792.963 279.74C791.413 275.137 790.639 270.147 790.639 264.77ZM810.326 263.334V264.77C810.326 267.868 810.6 270.762 811.146 273.451C811.693 276.14 812.559 278.51 813.744 280.561C814.975 282.566 816.57 284.138 818.529 285.277C820.489 286.417 822.882 286.986 825.707 286.986C828.441 286.986 830.788 286.417 832.748 285.277C834.708 284.138 836.28 282.566 837.465 280.561C838.65 278.51 839.516 276.14 840.062 273.451C840.655 270.762 840.951 267.868 840.951 264.77V263.334C840.951 260.326 840.655 257.501 840.062 254.857C839.516 252.169 838.627 249.799 837.396 247.748C836.212 245.652 834.639 244.011 832.68 242.826C830.72 241.641 828.35 241.049 825.57 241.049C822.79 241.049 820.421 241.641 818.461 242.826C816.547 244.011 814.975 245.652 813.744 247.748C812.559 249.799 811.693 252.169 811.146 254.857C810.6 257.501 810.326 260.326 810.326 263.334ZM892.494 242.348V301H872.738V227.035H891.264L892.494 242.348ZM889.76 261.42H884.291C884.291 256.27 884.906 251.531 886.137 247.201C887.413 242.826 889.258 239.044 891.674 235.854C894.135 232.618 897.165 230.111 900.766 228.334C904.366 226.557 908.536 225.668 913.275 225.668C916.557 225.668 919.564 226.169 922.299 227.172C925.033 228.129 927.38 229.656 929.34 231.752C931.345 233.803 932.895 236.492 933.988 239.818C935.082 243.1 935.629 247.042 935.629 251.645V301H915.941V253.832C915.941 250.46 915.486 247.862 914.574 246.039C913.663 244.216 912.364 242.94 910.678 242.211C909.037 241.482 907.055 241.117 904.73 241.117C902.178 241.117 899.945 241.641 898.031 242.689C896.163 243.738 894.613 245.196 893.383 247.064C892.152 248.887 891.241 251.029 890.648 253.49C890.056 255.951 889.76 258.594 889.76 261.42ZM933.783 259.164L926.742 260.053C926.742 255.222 927.335 250.733 928.52 246.586C929.75 242.439 931.55 238.793 933.92 235.648C936.335 232.504 939.32 230.066 942.875 228.334C946.43 226.557 950.531 225.668 955.18 225.668C958.734 225.668 961.97 226.192 964.887 227.24C967.803 228.243 970.287 229.861 972.338 232.094C974.434 234.281 976.029 237.152 977.123 240.707C978.262 244.262 978.832 248.614 978.832 253.764V301H959.076V253.764C959.076 250.346 958.62 247.748 957.709 245.971C956.843 244.148 955.567 242.895 953.881 242.211C952.24 241.482 950.281 241.117 948.002 241.117C945.632 241.117 943.559 241.596 941.781 242.553C940.004 243.464 938.523 244.74 937.338 246.381C936.153 248.021 935.264 249.936 934.672 252.123C934.079 254.265 933.783 256.612 933.783 259.164ZM1070.64 218.49L1043.57 301H1021.76L1058.74 201.469H1072.62L1070.64 218.49ZM1093.13 301L1065.99 218.49L1063.8 201.469H1077.82L1115 301H1093.13ZM1091.9 263.949V280.014H1039.33V263.949H1091.9ZM1146.04 201.469V301H1125.6V201.469H1146.04Z" fill="black"/>
<path d="M418.5 353C396.551 353.066 375.378 344.881 359.181 330.068C342.985 315.254 332.947 294.894 331.059 273.026C329.171 251.158 335.571 229.379 348.989 212.009C362.408 194.639 381.864 182.946 403.5 179.25C474.75 165.5 493.5 159 518.5 128C531 153 543.5 180.25 543.5 228C543.5 296.75 483.75 353 418.5 353Z" stroke="black" stroke-width="15" stroke-linecap="round" stroke-linejoin="round"/>
<path d="M306 365.5C306 328 329.125 298.5 369.5 290.5C399.75 284.5 431 265.5 443.5 253" stroke="black" stroke-width="15" stroke-linecap="round" stroke-linejoin="round"/>
</svg>
